{
  "accessors": [
    {
      "bufferView": 2,
      "componentType": 5126,
      "count": 219,
      "max": [
        0.3575102984905243,
        2.5260205268859863,
        1.2005149126052856
      ],
      "min": [
        -0.3575102984905243,
        0.0,
        -1.2005149126052856
      ],
      "type": "VEC3"
    },
    {
      "bufferView": 2,
      "byteOffset": 2628,
      "componentType": 5126,
      "count": 219,
      "max": [
        0.999953031539917,
        0.9900532960891724,
        0.9836677312850952
      ],
      "min": [
        -0.999953031539917,
        -1.0,
        -0.9836677312850952
      ],
      "type": "VEC3"
    },
    {
      "bufferView": 1,
      "componentType": 5126,
      "count": 219,
      "max": [
        0.640284538269043,
        0.8489265441894531
      ],
      "min": [
        0.31345197558403015,
        0.24950486421585083
      ],
      "type": "VEC2"
    },
    {
      "bufferView": 0,
      "componentType": 5125,
      "count": 1296,
      "type": "SCALAR"
    }
  ],
  "asset": {
    "extras": {
      "author": "Pun1shR (https://sketchfab.com/pun1shr)",
      "license": "CC-BY-4.0 (http://creativecommons.org/licenses/by/4.0/)",
      "source": "https://sketchfab.com/3d-models/arrow-bd395aa897ad45a19505f63d82519df3",
      "title": "arrow"
    },
    "generator": "Sketchfab-16.16.0",
    "version": "2.0"
  },
  "bufferViews": [
    {
      "buffer": 0,
      "byteLength": 5184,
      "name": "floatBufferViews",
      "target": 34963
    },
    {
      "buffer": 0,
      "byteLength": 1752,
      "byteOffset": 5184,
      "byteStride": 8,
      "name": "floatBufferViews",
      "target": 34962
    },
    {
      "buffer": 0,
      "byteLength": 5256,
      "byteOffset": 6936,
      "byteStride": 12,
      "name": "floatBufferViews",
      "target": 34962
    }
  ],
  "buffers": [
    {
      "byteLength": 12192,
      "uri": "scene.bin"
    }
  ],
  "images": [
    {
      "uri": "textures/tex-global_baseColor.png"
    }
  ],
  "materials": [
    {
      "doubleSided": true,
      "name": "tex-global",
      "pbrMetallicRoughness": {
        "baseColorTexture": {
          "index": 0
        },
        "metallicFactor": 0.0,
        "roughnessFactor": 0.6201923663005449
      }
    }
  ],
  "meshes": [
    {
      "name": "Object_0",
      "primitives": [
        {
          "attributes": {
            "NORMAL": 1,
            "POSITION": 0,
            "TEXCOORD_0": 2
          },
          "indices": 3,
          "material": 0,
          "mode": 4
        }
      ]
    }
  ],
  "nodes": [
    {
      "children": [
        1
      ],
      "matrix": [
        2.0437994704982153e-17,
        -4.683707119891743e-18,
        0.06136303022503853,
        0.0,
        0.06106104329505202,
        -0.006080317887711517,
        -2.1788096488177657e-17,
        0.0,
        0.006080317887711517,
        0.06106104329505202,
        2.061903213207597e-18,
        0.0,
        0.0,
        0.0,
        0.0,
        1.0
      ],
      "name": "Sketchfab_model"
    },
    {
      "children": [
        2
      ],
      "name": "root"
    },
    {
      "children": [
        3
      ],
      "matrix": [
        1.0,
        0.0,
        0.0,
        0.0,
        0.0,
        2.220446049250313e-16,
        1.0,
        0.0,
        0.0,
        -1.0,
        2.220446049250313e-16,
        0.0,
        0.0,
        0.0,
        0.0,
        1.0
      ],
      "name": "GLTF_SceneRootNode"
    },
    {
      "children": [
        4
      ],
      "matrix": [
        1.0,
        0.0,
        0.0,
        0.0,
        0.0,
        1.0,
        0.0,
        0.0,
        0.0,
        0.0,
        1.0,
        0.0,
        0.0,
        -0.9999999403953552,
        0.0,
        1.0
      ],
      "name": "arrow_0"
    },
    {
      "mesh": 0,
      "name": "Object_4"
    }
  ],
  "samplers": [
    {
      "magFilter": 9729,
      "minFilter": 9987,
      "wrapS": 10497,
      "wrapT": 10497
    }
  ],
  "scene": 0,
  "scenes": [
    {
      "name": "Sketchfab_Scene",
      "nodes": [
        0
      ]
    }
  ],
  "textures": [
    {
      "sampler": 0,
      "source": 0
    }
  ]
}
